<svg width="563" height="242" viewBox="0 0 563 242" fill="none" xmlns="http://www.w3.org/2000/svg">
<g clip-path="url(#clip0)">
<circle cx="280.735" cy="122.735" r="108.735" fill="#00B8DF"/>
<g filter="url(#filter0_d)">
<path d="M296.506 190.698C288.717 190.698 281.707 188.751 275.476 184.857C269.246 180.807 264.339 175.355 260.756 168.501C257.173 161.647 255.382 153.936 255.382 145.369V87.6555H244.634C241.362 87.6555 238.714 86.7208 236.689 84.8516C234.664 82.9823 233.652 80.6457 233.652 77.8418C233.652 74.7264 234.664 72.2341 236.689 70.3648C238.714 68.4955 241.362 67.5609 244.634 67.5609H255.382V33.9143C255.382 30.4873 256.472 27.6834 258.653 25.5026C260.834 23.3218 263.638 22.2314 267.065 22.2314C270.492 22.2314 273.296 23.3218 275.476 25.5026C277.657 27.6834 278.748 30.4873 278.748 33.9143V67.5609H298.609C301.88 67.5609 304.528 68.4955 306.553 70.3648C308.578 72.2341 309.59 74.7264 309.59 77.8418C309.59 80.6457 308.578 82.9823 306.553 84.8516C304.528 86.7208 301.88 87.6555 298.609 87.6555H278.748V145.369C278.748 151.6 280.461 156.818 283.888 161.024C287.315 165.23 291.521 167.333 296.506 167.333H304.45C307.254 167.333 309.59 168.423 311.46 170.604C313.485 172.785 314.497 175.589 314.497 179.015C314.497 182.442 313.173 185.246 310.525 187.427C308.033 189.608 304.762 190.698 300.711 190.698H296.506Z" fill="white"/>
</g>
<circle cx="448.735" cy="122.735" r="108.735" fill="#E36799"/>
<g filter="url(#filter1_d)">
<path d="M446.506 191.633C435.602 191.633 425.476 189.997 416.13 186.726C406.94 183.299 399.774 179.015 394.634 173.875C392.297 171.383 391.285 168.579 391.596 165.463C392.063 162.192 393.621 159.544 396.269 157.519C399.385 155.027 402.422 154.014 405.382 154.481C408.497 154.793 411.145 156.117 413.326 158.454C415.974 161.413 420.18 164.217 425.944 166.865C431.863 169.358 438.406 170.604 445.571 170.604C454.606 170.604 461.46 169.124 466.133 166.164C470.962 163.205 473.454 159.388 473.61 154.715C473.766 150.042 471.507 145.992 466.834 142.565C462.316 139.138 453.983 136.334 441.832 134.153C426.1 131.038 414.65 126.365 407.485 120.134C400.475 113.903 396.97 106.27 396.97 97.2354C396.97 89.2911 399.307 82.7486 403.98 77.6082C408.653 72.312 414.65 68.4177 421.972 65.9253C429.293 63.2772 436.926 61.9531 444.87 61.9531C455.151 61.9531 464.264 63.5887 472.208 66.8599C480.152 70.1312 486.461 74.6485 491.134 80.4121C493.315 82.9044 494.328 85.5525 494.172 88.3564C494.016 91.0045 492.692 93.2632 490.2 95.1325C487.707 96.846 484.748 97.3912 481.321 96.7681C477.894 96.145 475.012 94.7431 472.675 92.5623C468.781 88.8237 464.575 86.2535 460.058 84.8516C455.54 83.4496 450.322 82.7487 444.403 82.7487C437.549 82.7487 431.707 83.9169 426.878 86.2535C422.205 88.5901 419.869 92.0171 419.869 96.5344C419.869 99.3383 420.57 101.909 421.972 104.245C423.529 106.426 426.489 108.451 430.851 110.32C435.212 112.034 441.599 113.747 450.01 115.461C467.613 118.888 479.763 123.794 486.461 130.181C493.315 136.412 496.742 144.123 496.742 153.313C496.742 160.479 494.795 166.943 490.901 172.707C487.162 178.47 481.554 183.066 474.077 186.493C466.756 189.92 457.565 191.633 446.506 191.633Z" fill="white"/>
</g>
<circle cx="112.299" cy="122.735" r="108.735" fill="#F8DB6C"/>
<g filter="url(#filter2_d)">
<path d="M120.058 191.633C107.129 191.633 95.6016 188.907 85.4765 183.455C75.5071 177.847 67.6406 170.214 61.8771 160.557C56.2693 150.743 53.4654 139.527 53.4654 126.91C53.4654 114.137 56.1135 102.921 61.4097 93.2632C66.8618 83.4496 74.3388 75.8168 83.8409 70.3648C93.3429 64.757 104.247 61.9531 116.553 61.9531C128.703 61.9531 139.14 64.6791 147.863 70.1311C156.586 75.4274 163.206 82.8265 167.724 92.3286C172.397 101.675 174.734 112.501 174.734 124.807C174.734 127.767 173.721 130.259 171.696 132.284C169.671 134.153 167.101 135.088 163.985 135.088H75.1955C76.909 145.836 81.8158 154.637 89.9159 161.491C98.1718 168.189 108.219 171.538 120.058 171.538C124.887 171.538 129.793 170.682 134.778 168.968C139.919 167.099 144.047 164.996 147.162 162.659C149.499 160.946 151.991 160.089 154.639 160.089C157.443 159.933 159.857 160.712 161.882 162.426C164.531 164.762 165.932 167.333 166.088 170.137C166.244 172.94 164.998 175.355 162.35 177.38C157.054 181.586 150.433 185.013 142.489 187.661C134.7 190.309 127.223 191.633 120.058 191.633ZM116.553 82.0477C105.026 82.0477 95.7574 85.241 88.7477 91.6276C81.7379 98.0143 77.2985 106.27 75.4292 116.395H153.237C151.835 106.426 148.019 98.2479 141.788 91.8613C135.557 85.3189 127.145 82.0477 116.553 82.0477Z" fill="white"/>
</g>
</g>
<defs>
<filter id="filter0_d" x="220.652" y="22.2314" width="93.8455" height="172.467" filterUnits="userSpaceOnUse" color-interpolation-filters="sRGB">
<feFlood flood-opacity="0" result="BackgroundImageFix"/>
<feColorMatrix in="SourceAlpha" type="matrix" values="0 0 0 0 0 0 0 0 0 0 0 0 0 0 0 0 0 0 127 0"/>
<feOffset dx="-13" dy="4"/>
<feColorMatrix type="matrix" values="0 0 0 0 0 0 0 0 0 0 0 0 0 0 0 0 0 0 0.25 0"/>
<feBlend mode="normal" in2="BackgroundImageFix" result="effect1_dropShadow"/>
<feBlend mode="normal" in="SourceGraphic" in2="effect1_dropShadow" result="shape"/>
</filter>
<filter id="filter1_d" x="378.541" y="61.9531" width="118.201" height="133.68" filterUnits="userSpaceOnUse" color-interpolation-filters="sRGB">
<feFlood flood-opacity="0" result="BackgroundImageFix"/>
<feColorMatrix in="SourceAlpha" type="matrix" values="0 0 0 0 0 0 0 0 0 0 0 0 0 0 0 0 0 0 127 0"/>
<feOffset dx="-13" dy="4"/>
<feColorMatrix type="matrix" values="0 0 0 0 0 0 0 0 0 0 0 0 0 0 0 0 0 0 0.25 0"/>
<feBlend mode="normal" in2="BackgroundImageFix" result="effect1_dropShadow"/>
<feBlend mode="normal" in="SourceGraphic" in2="effect1_dropShadow" result="shape"/>
</filter>
<filter id="filter2_d" x="40.4654" y="61.9531" width="134.268" height="133.68" filterUnits="userSpaceOnUse" color-interpolation-filters="sRGB">
<feFlood flood-opacity="0" result="BackgroundImageFix"/>
<feColorMatrix in="SourceAlpha" type="matrix" values="0 0 0 0 0 0 0 0 0 0 0 0 0 0 0 0 0 0 127 0"/>
<feOffset dx="-13" dy="4"/>
<feColorMatrix type="matrix" values="0 0 0 0 0 0 0 0 0 0 0 0 0 0 0 0 0 0 0.25 0"/>
<feBlend mode="normal" in2="BackgroundImageFix" result="effect1_dropShadow"/>
<feBlend mode="normal" in="SourceGraphic" in2="effect1_dropShadow" result="shape"/>
</filter>
<clipPath id="clip0">
<rect width="563" height="242" fill="white"/>
</clipPath>
</defs>
</svg>
